<svg xmlns="http://www.w3.org/2000/svg" viewBox="0 0 100 100" width="100%" height="100%">
  <defs>
    <linearGradient id="ai-glow" x1="0%" y1="0%" x2="100%" y2="100%">
      <stop offset="0%" stop-color="#10b981" />
      <stop offset="50%" stop-color="#3b82f6" />
      <stop offset="100%" stop-color="#8b5cf6" />
    </linearGradient>
  </defs>
  <g fill="none" stroke="url(#ai-glow)" stroke-width="2.5" stroke-linecap="round" stroke-linejoin="round">
    <path d="M 50,15 A 35,35 0 0,0 23,28 A 12,12 0 0,0 20,40 A 25,25 0 0,0 20,60 A 12,12 0 0,0 23,72 A 35,35 0 0,0 50,85 A 35,35 0 0,0 77,72 A 12,12 0 0,0 80,60 A 25,25 0 0,0 80,40 A 12,12 0 0,0 77,28 A 35,35 0 0,0 50,15 Z" />
    <circle cx="50" cy="50" r="10" fill="url(#ai-glow)" fill-opacity="0.1" stroke-width="3" />
    <line x1="50" y1="15" x2="50" y2="40" />
    <line x1="50" y1="85" x2="50" y2="60" />
    <line x1="20" y1="50" x2="40" y2="50" />
    <line x1="80" y1="50" x2="60" y2="50" />
    <line x1="28" y1="28" x2="43" y2="43" />
    <line x1="72" y1="72" x2="57" y2="57" />
    <line x1="72" y1="28" x2="57" y2="43" />
    <line x1="28" y1="72" x2="43" y2="57" />
    <circle cx="50" cy="15" r="4.5" fill="#8b5cf6" stroke="none" />
    <circle cx="50" cy="85" r="4.5" fill="#10b981" stroke="none" />
    <circle cx="20" cy="50" r="4.5" fill="#3b82f6" stroke="none" />
    <circle cx="80" cy="50" r="4.5" fill="#8b5cf6" stroke="none" />
    <circle cx="28" cy="28" r="3.5" fill="#3b82f6" stroke="none" />
    <circle cx="72" cy="72" r="3.5" fill="#10b981" stroke="none" />
    <circle cx="72" cy="28" r="3.5" fill="#8b5cf6" stroke="none" />
    <circle cx="28" cy="72" r="3.5" fill="#3b82f6" stroke="none" />
  </g>
</svg>
