<svg xmlns="http://www.w3.org/2000/svg" viewBox="0 0 110 110" width="100%" height="100%">
  <defs>
    <linearGradient id="python-blue" x1="0%" y1="0%" x2="100%" y2="100%">
      <stop offset="0%" stop-color="#3776ab" />
      <stop offset="100%" stop-color="#1e4d75" />
    </linearGradient>
    <linearGradient id="python-yellow" x1="0%" y1="0%" x2="100%" y2="100%">
      <stop offset="0%" stop-color="#ffd43b" />
      <stop offset="100%" stop-color="#ffe873" />
    </linearGradient>
  </defs>
  <path d="M 52.12,4.00 C 37.33,4.00 28.53,5.65 22.31,11.53 C 15.00,18.45 15.09,25.96 15.09,34.84 L 15.09,42.44 L 35.88,42.44 L 35.88,45.41 L 12.06,45.41 C 5.56,45.41 0.00,50.15 0.00,59.34 C 0.00,68.91 5.09,73.59 12.06,73.59 L 19.34,73.59 L 19.34,64.22 C 19.34,53.28 28.25,44.38 39.19,44.38 L 59.97,44.38 C 65.44,44.38 69.88,39.94 69.88,34.47 L 69.88,14.63 C 69.88,8.28 65.25,4.00 52.12,4.00 Z M 35.47,13.25 C 37.75,13.25 39.59,15.12 39.59,17.38 C 39.59,19.66 37.75,21.50 35.47,21.50 C 33.22,21.50 31.34,19.66 31.34,17.38 C 31.34,15.12 33.22,13.25 35.47,13.25 Z" fill="url(#python-blue)" />
  <path d="M 57.88,106.00 C 72.67,106.00 81.47,104.35 87.69,98.47 C 95.00,91.55 94.91,84.04 94.91,75.16 L 94.91,67.56 L 74.12,67.56 L 74.12,64.59 L 97.94,64.59 C 104.44,64.59 110.00,59.85 110.00,50.66 C 110.00,41.09 104.91,36.41 97.94,36.41 L 90.66,36.41 L 90.66,45.78 C 90.66,56.72 81.75,65.62 70.81,65.62 L 50.03,65.62 C 44.56,65.62 40.12,70.06 40.12,75.53 L 40.12,95.37 C 40.12,101.72 44.75,106.00 57.88,106.00 Z M 74.53,96.75 C 72.25,96.75 70.41,94.88 70.41,92.62 C 70.41,90.34 72.25,88.50 74.53,88.50 C 76.78,88.50 78.66,90.34 78.66,92.62 C 78.66,94.88 76.78,96.75 74.53,96.75 Z" fill="url(#python-yellow)" />
</svg>
